<svg id="visual" viewBox="0 0 900 600" width="900" height="600" xmlns="http://www.w3.org/2000/svg" xmlns:xlink="http://www.w3.org/1999/xlink" version="1.1"><rect x="0" y="0" width="900" height="600" fill="#ffffff"></rect><defs><linearGradient id="grad1_0" x1="33.3%" y1="0%" x2="100%" y2="100%"><stop offset="20%" stop-color="#ffffff" stop-opacity="1"></stop><stop offset="80%" stop-color="#ffffff" stop-opacity="1"></stop></linearGradient></defs><defs><linearGradient id="grad2_0" x1="0%" y1="0%" x2="66.7%" y2="100%"><stop offset="20%" stop-color="#ffffff" stop-opacity="1"></stop><stop offset="80%" stop-color="#ffffff" stop-opacity="1"></stop></linearGradient></defs><g transform="translate(900, 0)"><path d="M0 243.4C-25.5 218.5 -51.1 193.6 -73.5 177.4C-95.9 161.2 -115.1 153.8 -142.8 142.8C-170.5 131.9 -206.7 117.5 -224.8 93.1C-243 68.8 -243.2 34.4 -243.4 0L0 0Z" fill="#1977b1"></path></g><g transform="translate(0, 600)"><path d="M0 -243.4C31.4 -232.1 62.8 -220.9 83.8 -202.3C104.9 -183.8 115.6 -157.9 140.7 -140.7C165.8 -123.6 205.3 -115.1 224.8 -93.1C244.4 -71.1 243.9 -35.6 243.4 0L0 0Z" fill="#1977b1"></path></g></svg>